<svg width="36" height="16" viewBox="0 0 36 16" fill="none" xmlns="http://www.w3.org/2000/svg">
<path d="M-1.8999e-05 15.3721V0.25207H3.14998L4.69798 10.4221L6.47998 0.25207H9.44998V15.3721H7.30798V5.97607L5.92198 15.3721H3.63598L2.14198 5.97607V15.3721H-1.8999e-05ZM11.7368 15.3721V0.25207H16.7588V1.63807H13.8788V6.80407H16.7588V8.19007H13.8788V13.9681H16.7948V15.3721H11.7368ZM19.0793 15.3721V0.25207H21.2213V6.75007H22.1933V0.25207H24.3353V15.3721H22.1933V8.15407H21.2213V15.3721H19.0793ZM29.135 6.75007H30.161V2.44807C30.161 1.66807 30.281 1.11007 30.521 0.774069C30.761 0.438069 31.031 0.216069 31.331 0.108069C31.463 0.0600693 31.595 0.0300694 31.727 0.0180695C31.859 0.00606966 31.979 6.97374e-05 32.087 6.97374e-05H33.527C34.091 6.97374e-05 34.505 0.13207 34.769 0.39607C35.033 0.660069 35.213 0.954069 35.309 1.27807C35.369 1.49407 35.405 1.70407 35.417 1.90807C35.429 2.11207 35.435 2.27407 35.435 2.39407C35.435 2.40607 35.435 2.41807 35.435 2.43007C35.435 2.43007 35.435 2.43607 35.435 2.44807V13.3381C35.435 13.3381 35.435 13.3441 35.435 13.3561C35.435 13.4761 35.429 13.6081 35.417 13.7521C35.417 13.8841 35.411 14.0221 35.399 14.1661C35.339 14.5261 35.183 14.8561 34.931 15.1561C34.691 15.4561 34.223 15.6061 33.527 15.6061L32.069 15.6241C31.373 15.6121 30.899 15.4561 30.647 15.1561C30.407 14.8561 30.257 14.5261 30.197 14.1661C30.185 14.0221 30.173 13.8841 30.161 13.7521C30.161 13.6081 30.161 13.4761 30.161 13.3561C30.161 13.3441 30.161 13.3381 30.161 13.3381V8.13607H29.135V15.3721H26.993V0.25207H29.135V6.75007ZM32.303 1.90807V13.6981C32.303 13.8301 32.345 13.9501 32.429 14.0581C32.513 14.1661 32.633 14.2201 32.789 14.2201C32.945 14.2201 33.065 14.1721 33.149 14.0761C33.233 13.9801 33.281 13.8721 33.293 13.7521C33.293 13.7401 33.293 13.7341 33.293 13.7341C33.293 13.7221 33.293 13.7101 33.293 13.6981V1.90807C33.293 1.89607 33.293 1.89007 33.293 1.89007C33.293 1.87807 33.293 1.86607 33.293 1.85407C33.281 1.73407 33.227 1.62607 33.131 1.53007C33.035 1.43407 32.921 1.38607 32.789 1.38607C32.669 1.38607 32.555 1.44007 32.447 1.54807C32.351 1.65607 32.303 1.77607 32.303 1.90807Z" fill="#FCFCF5"/>
</svg>
